<?xml version="1.0" encoding="UTF-8"?>
<svg version="1.1" xmlns="http://www.w3.org/2000/svg" width="300" height="48">
<path d="M0 0 C4.40433783 1.76550489 5.55990944 5.53597089 7.55078125 9.66015625 C7.95748047 10.46646484 8.36417969 11.27277344 8.78320312 12.10351562 C9.78442229 14.09417491 10.76838542 16.09159842 11.73828125 18.09765625 C12.28097656 17.1334375 12.82367188 16.16921875 13.3828125 15.17578125 C14.10532375 13.89965748 14.82798808 12.62362037 15.55078125 11.34765625 C15.90720703 10.7134375 16.26363281 10.07921875 16.63085938 9.42578125 C18.4907686 6.14961088 20.37667209 3.04780524 22.73828125 0.09765625 C25.21328125 0.59265625 25.21328125 0.59265625 27.73828125 1.09765625 C27.73828125 10.99765625 27.73828125 20.89765625 27.73828125 31.09765625 C26.08828125 31.42765625 24.43828125 31.75765625 22.73828125 32.09765625 C20.67905723 30.03843223 21.32400546 25.88057501 21.17578125 23.03515625 C21.13259766 22.27654297 21.08941406 21.51792969 21.04492188 20.73632812 C20.93854492 18.85700187 20.83788191 16.97735381 20.73828125 15.09765625 C20.3515625 15.95230469 19.96484375 16.80695312 19.56640625 17.6875 C19.045625 18.79222656 18.52484375 19.89695312 17.98828125 21.03515625 C17.4778125 22.13730469 16.96734375 23.23945313 16.44140625 24.375 C14.73828125 27.09765625 14.73828125 27.09765625 12.53515625 27.9765625 C11.9421875 28.01652344 11.34921875 28.05648437 10.73828125 28.09765625 C10.23167969 27.28361328 10.23167969 27.28361328 9.71484375 26.453125 C9.26882812 25.73769531 8.8228125 25.02226563 8.36328125 24.28515625 C7.92242187 23.57746094 7.4815625 22.86976562 7.02734375 22.140625 C5.95639649 20.44333586 4.85151886 18.76751267 3.73828125 17.09765625 C3.40828125 21.71765625 3.07828125 26.33765625 2.73828125 31.09765625 C1.08828125 31.42765625 -0.56171875 31.75765625 -2.26171875 32.09765625 C-4.14491143 30.21446357 -3.3922616 26.97835488 -3.39453125 24.47265625 C-3.39548798 23.81056152 -3.3964447 23.1484668 -3.39743042 22.46630859 C-3.39811201 21.06412664 -3.39625917 19.66194155 -3.39208984 18.25976562 C-3.38674121 16.10669912 -3.39203545 13.95384123 -3.3984375 11.80078125 C-3.39777671 10.44140579 -3.39649554 9.08203045 -3.39453125 7.72265625 C-3.39340332 6.47742188 -3.39227539 5.2321875 -3.39111328 3.94921875 C-3.21821607 0.13895579 -3.21821607 0.13895579 0 0 Z " fill="#494949" transform="translate(245.26171875,7.90234375)"/>
<path d="M0 0 C1.9375 1.8125 1.9375 1.8125 2.375 4.875 C1.9375 7.8125 1.9375 7.8125 -0.0625 9.8125 C-2.890625 9.90234375 -2.890625 9.90234375 -6.3125 9.75 C-11.34886853 9.68329313 -14.91442609 9.64686465 -19.0625 12.8125 C-21.6159393 16.39564522 -22.45195567 18.95501312 -22.57421875 23.33203125 C-22.60966797 24.35361328 -22.64511719 25.37519531 -22.68164062 26.42773438 C-22.71547852 28.01038086 -22.71547852 28.01038086 -22.75 29.625 C-22.78416016 30.69943359 -22.81832031 31.77386719 -22.85351562 32.88085938 C-22.93576643 35.52463533 -23.00499209 38.16808921 -23.0625 40.8125 C-26.15399578 39.35746919 -27.81220602 38.21750537 -29.75 35.375 C-30.16636719 34.77816406 -30.58273438 34.18132813 -31.01171875 33.56640625 C-34.34822739 27.99728959 -33.5473472 21.05317609 -33.0625 14.8125 C-31.45297404 8.63618653 -27.44602728 4.12069806 -22.0625 0.8125 C-14.51710218 -2.61041225 -7.71586292 -2.99186522 0 0 Z " fill="#3C3C3C" transform="translate(33.0625,3.1875)"/>
<path d="M0 0 C2.4375 1.125 2.4375 1.125 4.25 3.4375 C6.55824441 10.60520633 6.53506967 17.5723273 3.4375 24.5 C0.22183949 30.20550051 -4.3510026 34.05450087 -10.5625 36.125 C-13.09507899 36.22099519 -15.59342392 36.26437035 -18.125 36.25 C-18.81013672 36.25386719 -19.49527344 36.25773437 -20.20117188 36.26171875 C-25.3091133 36.25169335 -25.3091133 36.25169335 -27.5625 35.125 C-27.5625 31.165 -27.5625 27.205 -27.5625 23.125 C-26.7375 23.455 -25.9125 23.785 -25.0625 24.125 C-19.46771681 25.72350948 -15.4686371 26.07806855 -10.1875 23.4375 C-6.54297903 20.22685057 -5.68086195 17.97933728 -5.375 13.1875 C-5.47589149 10.08762976 -5.47589149 10.08762976 -6.3125 7 C-6.5625 4.125 -6.5625 4.125 -4.9375 1.6875 C-2.5625 0.125 -2.5625 0.125 0 0 Z " fill="#3E3E3E" transform="translate(40.5625,11.875)"/>
<path d="M0 0 C2.71129992 0.01437085 4.4094413 0.43368529 6.39160156 2.33447266 C7.87029033 4.11747578 9.25723629 5.94309767 10.625 7.8125 C11.10195312 8.44220703 11.57890625 9.07191406 12.0703125 9.72070312 C13.39298707 11.47140988 14.69767604 13.23413276 16 15 C16.99 16.32 17.98 17.64 19 19 C19.33 13.06 19.66 7.12 20 1 C21.65 0.67 23.3 0.34 25 0 C26 1 26 1 26.11352539 3.86743164 C26.10828857 5.11903076 26.10305176 6.37062988 26.09765625 7.66015625 C26.0962413 8.32462265 26.09482635 8.98908905 26.09336853 9.6736908 C26.08775518 11.80333899 26.07520054 13.93288339 26.0625 16.0625 C26.05748671 17.50325369 26.05292351 18.94400903 26.04882812 20.38476562 C26.03778145 23.92321102 26.02050792 27.46159539 26 31 C24.35 31.33 22.7 31.66 21 32 C19.43426836 30.14848433 17.87241373 28.29390797 16.3125 26.4375 C15.87744141 25.92380859 15.44238281 25.41011719 14.99414062 24.88085938 C11.76383329 21.02841878 8.94247997 17.11947196 6 13 C5.67 18.94 5.34 24.88 5 31 C3.35 31.33 1.7 31.66 0 32 C-1.88319268 30.11680732 -1.13054285 26.88069863 -1.1328125 24.375 C-1.13376923 23.71290527 -1.13472595 23.05081055 -1.13571167 22.36865234 C-1.13639326 20.96647039 -1.13454042 19.5642853 -1.13037109 18.16210938 C-1.12502246 16.00904287 -1.1303167 13.85618498 -1.13671875 11.703125 C-1.13605796 10.34374954 -1.13477679 8.9843742 -1.1328125 7.625 C-1.13168457 6.37976563 -1.13055664 5.13453125 -1.12939453 3.8515625 C-1 1 -1 1 0 0 Z " fill="#3D3D3D" transform="translate(146,8)"/>
<path d="M0 0 C3.30195023 4.56446061 5.27224184 8.84082006 5 14.56640625 C4.15633213 19.62088069 2.95350982 23.33419664 -0.875 26.9375 C-5.57186112 29.83338605 -10.5307862 29.44647274 -15.875 28.9375 C-20.06779817 27.24253904 -22.33977402 24.64979518 -24.875 20.9375 C-26.57498394 15.53557735 -26.59670164 10.02241584 -24.75 4.6875 C-22.02797305 0.6951938 -19.13931018 -2.14453641 -14.5625 -4 C-9.08003452 -4.1274992 -4.48789659 -3.21957799 0 0 Z M-17.875 4.9375 C-18.88602038 7.97056113 -19.0732535 10.19690239 -19.125 13.375 C-19.15078125 14.32246094 -19.1765625 15.26992188 -19.203125 16.24609375 C-18.81965741 19.39144101 -18.09138051 20.70069202 -15.875 22.9375 C-12.02314776 24.00745896 -9.80002749 24.307511 -6.0625 22.8125 C-3.36190689 20.49770591 -2.61906079 19.43458569 -1.875 15.9375 C-1.73811733 10.97751602 -1.81794302 7.20596837 -5.0625 3.3125 C-10.02570599 0.88604374 -13.88075451 0.94325451 -17.875 4.9375 Z " fill="#414141" transform="translate(135.875,11.0625)"/>
<path d="M0 0 C4.01048394 4.13201375 4.96899907 8.40066558 5.0625 14.125 C4.445515 19.44282306 2.91343199 23.27406801 -0.9375 27.125 C-5.62406744 30.03496017 -10.59965702 29.62542278 -15.9375 29.125 C-20.57864744 27.34753928 -22.47021738 24.35462735 -24.9375 20.125 C-26.69331591 14.85755228 -26.41153705 10.54711114 -24.6875 5.375 C-22.25009009 0.8483816 -20.49721093 -1.20218352 -15.75 -3.25 C-9.78273918 -4.22823948 -5.0984339 -3.25431951 0 0 Z M-17.9375 5.125 C-18.9077889 8.03586669 -19.10217847 10.02723685 -19.125 13.0625 C-19.13917969 13.91714844 -19.15335937 14.77179687 -19.16796875 15.65234375 C-18.92138703 18.29787302 -18.32899677 19.87872665 -16.9375 22.125 C-14.24162197 24.22179403 -12.844556 24.12010821 -9.375 23.9375 C-5.440805 23.01087292 -5.440805 23.01087292 -2.9375 20.125 C-1.31189327 15.2481798 -1.12818314 10.8977893 -3.25 6.25 C-4.93490483 3.9052755 -4.93490483 3.9052755 -7.9375 2.125 C-12.33245476 1.65745162 -14.76661215 1.95411215 -17.9375 5.125 Z " fill="#434343" transform="translate(101.9375,10.875)"/>
<path d="M0 0 C0.474375 0.45375 0.94875 0.9075 1.4375 1.375 C1.1075 2.695 0.7775 4.015 0.4375 5.375 C-0.2225 5.230625 -0.8825 5.08625 -1.5625 4.9375 C-8.23375229 3.4921056 -8.23375229 3.4921056 -14.9375 3.9375 C-17.45985835 6.168817 -17.89393191 8.09293848 -18.5625 11.375 C-18.49036467 15.61495411 -17.96090196 18.77739706 -15.5625 22.375 C-13.43641128 22.95601315 -13.43641128 22.95601315 -11.0625 23.0625 C-10.2684375 23.12824219 -9.474375 23.19398437 -8.65625 23.26171875 C-7.29313798 23.33546921 -5.92760568 23.375 -4.5625 23.375 C-4.5625 21.065 -4.5625 18.755 -4.5625 16.375 C-6.8725 16.375 -9.1825 16.375 -11.5625 16.375 C-11.2325 14.725 -10.9025 13.075 -10.5625 11.375 C-8.75007948 11.34812721 -6.93754767 11.32866285 -5.125 11.3125 C-4.11566406 11.30089844 -3.10632813 11.28929687 -2.06640625 11.27734375 C0.4375 11.375 0.4375 11.375 1.4375 12.375 C1.51063567 14.90549402 1.52997527 17.40804837 1.5 19.9375 C1.49548828 20.64841797 1.49097656 21.35933594 1.48632812 22.09179688 C1.47450864 23.85290013 1.45657263 25.61396036 1.4375 27.375 C-3.94397238 30.7216868 -10.47585146 29.94761154 -16.5625 29.375 C-20.11481222 28.1779549 -21.96623117 26.19018879 -24.1796875 23.1640625 C-26.78803513 17.90315796 -26.16722157 12.0996975 -25.5625 6.375 C-24.32007627 2.71452577 -22.22195441 0.86536353 -19.125 -1.4375 C-12.6028 -4.45998293 -6.10922635 -3.87414354 0 0 Z " fill="#414141" transform="translate(202.5625,10.625)"/>
<path d="M0 0 C0.78552246 0.01047363 1.57104492 0.02094727 2.38037109 0.03173828 C3.23115234 0.03818359 4.08193359 0.04462891 4.95849609 0.05126953 C6.29267578 0.07640625 6.29267578 0.07640625 7.65380859 0.10205078 C8.99958984 0.11558594 8.99958984 0.11558594 10.37255859 0.12939453 C12.59157445 0.15300108 14.81005937 0.18592768 17.02880859 0.22705078 C17.35880859 1.87705078 17.68880859 3.52705078 18.02880859 5.22705078 C15.14464977 6.66913019 12.61159331 6.32099965 9.40380859 6.28955078 C8.21529297 6.28052734 7.02677734 6.27150391 5.80224609 6.26220703 C4.88701172 6.25060547 3.97177734 6.23900391 3.02880859 6.22705078 C3.02880859 8.53705078 3.02880859 10.84705078 3.02880859 13.22705078 C7.64880859 13.22705078 12.26880859 13.22705078 17.02880859 13.22705078 C17.35880859 14.54705078 17.68880859 15.86705078 18.02880859 17.22705078 C14.60786618 19.50767906 13.34693637 19.44630085 9.34130859 19.35205078 C7.85050781 19.32498047 7.85050781 19.32498047 6.32958984 19.29736328 C5.57033203 19.27416016 4.81107422 19.25095703 4.02880859 19.22705078 C3.69880859 21.53705078 3.36880859 23.84705078 3.02880859 26.22705078 C4.40166016 26.20964844 4.40166016 26.20964844 5.80224609 26.19189453 C7.58501953 26.17835937 7.58501953 26.17835937 9.40380859 26.16455078 C10.58716797 26.15294922 11.77052734 26.14134766 12.98974609 26.12939453 C16.02880859 26.22705078 16.02880859 26.22705078 18.02880859 27.22705078 C17.69880859 28.87705078 17.36880859 30.52705078 17.02880859 32.22705078 C13.90388608 32.28496922 10.77910094 32.32061824 7.65380859 32.35205078 C6.76435547 32.36880859 5.87490234 32.38556641 4.95849609 32.40283203 C3.68232422 32.4125 3.68232422 32.4125 2.38037109 32.42236328 C1.2020874 32.43807373 1.2020874 32.43807373 0 32.45410156 C-1.97119141 32.22705078 -1.97119141 32.22705078 -3.97119141 30.22705078 C-4.22998047 27.46142578 -4.22998047 27.46142578 -4.23681641 23.97705078 C-4.23939453 22.72923828 -4.24197266 21.48142578 -4.24462891 20.19580078 C-4.23689453 18.88611328 -4.22916016 17.57642578 -4.22119141 16.22705078 C-4.22892578 14.91736328 -4.23666016 13.60767578 -4.24462891 12.25830078 C-4.24205078 11.01048828 -4.23947266 9.76267578 -4.23681641 8.47705078 C-4.23456055 7.32720703 -4.23230469 6.17736328 -4.22998047 4.99267578 C-3.92746626 1.7597692 -3.38697322 0.39012696 0 0 Z " fill="#3C3C3C" transform="translate(281.97119140625,7.77294921875)"/>
<path d="M0 0 C2.34765625 0.046875 2.34765625 0.046875 5 1 C6.80859375 3.703125 6.80859375 3.703125 8.4375 7.25 C8.72826416 7.87173096 9.01902832 8.49346191 9.31860352 9.1340332 C9.92334821 10.43225784 10.52017359 11.73419832 11.109375 13.03955078 C11.97476868 14.94446067 12.87163446 16.830712 13.78125 18.71484375 C18 27.56028892 18 27.56028892 18 31 C16.35 31.33 14.7 31.66 13 32 C10 28.375 10 28.375 10 25 C4.72 25 -0.56 25 -6 25 C-6.66 26.98 -7.32 28.96 -8 31 C-9.65 31.33 -11.3 31.66 -13 32 C-14.36029533 27.95754042 -13.71658173 25.58638829 -11.90283203 21.78369141 C-11.58427246 21.15382324 -11.26571289 20.52395508 -10.9375 19.875 C-10.61894043 19.22063965 -10.30038086 18.5662793 -9.97216797 17.89208984 C-2.31446999 2.31446999 -2.31446999 2.31446999 0 0 Z M1 8 C-0.32 11.63 -1.64 15.26 -3 19 C0.3 19 3.6 19 7 19 C6.38348417 17.3509698 5.75652258 15.70584159 5.125 14.0625 C4.77695313 13.14597656 4.42890625 12.22945312 4.0703125 11.28515625 C3.2180914 8.85058944 3.2180914 8.85058944 1 8 Z " fill="#404040" transform="translate(221,8)"/>
<path d="M0 0 C3.99062431 2.48472834 5.68655935 3.96748964 7.0625 8.5 C6.97642701 13.32008768 5.52645066 15.47354934 2.1875 18.8125 C-0.8527265 20.46290867 -2.57949832 20.54728027 -6 20 C-8.9228334 18.16899068 -11.43323854 16.13352292 -13 13 C-13.40417552 10.03604618 -13.56382171 7.91095074 -11.953125 5.30859375 C-8.19027184 0.71569946 -5.93582549 -0.68490294 0 0 Z " fill="#11BCF0" transform="translate(26,15)"/>
<path d="M0 0 C1.65 0.33 3.3 0.66 5 1 C5 9.25 5 17.5 5 26 C9.62 26 14.24 26 19 26 C19.33 27.65 19.66 29.3 20 31 C18.44393249 32.55606751 16.94042629 32.12970769 14.78125 32.1328125 C13.50701172 32.13474609 13.50701172 32.13474609 12.20703125 32.13671875 C10.86705078 32.13091797 10.86705078 32.13091797 9.5 32.125 C8.60667969 32.12886719 7.71335937 32.13273437 6.79296875 32.13671875 C5.94347656 32.13542969 5.09398437 32.13414063 4.21875 32.1328125 C3.43435547 32.13168457 2.64996094 32.13055664 1.84179688 32.12939453 C0 32 0 32 -1 31 C-1.10012401 28.79349344 -1.1308118 26.58377614 -1.1328125 24.375 C-1.13376923 23.71290527 -1.13472595 23.05081055 -1.13571167 22.36865234 C-1.13639326 20.96647039 -1.13454042 19.5642853 -1.13037109 18.16210938 C-1.12502246 16.00904287 -1.1303167 13.85618498 -1.13671875 11.703125 C-1.13605796 10.34374954 -1.13477679 8.9843742 -1.1328125 7.625 C-1.13168457 6.37976563 -1.13055664 5.13453125 -1.12939453 3.8515625 C-1 1 -1 1 0 0 Z " fill="#434343" transform="translate(56,8)"/>
<path d="M0 0 C2.3125 0 2.3125 0 5 1 C7.64541461 4.06571413 9.05192495 6.80572626 8.875 10.875 C8 13 8 13 6 14 C5.67 19.61 5.34 25.22 5 31 C3.35 31.33 1.7 31.66 0 32 C-1.88319268 30.11680732 -1.13054285 26.88069863 -1.1328125 24.375 C-1.13376923 23.71290527 -1.13472595 23.05081055 -1.13571167 22.36865234 C-1.13639326 20.96647039 -1.13454042 19.5642853 -1.13037109 18.16210938 C-1.12502246 16.00904287 -1.1303167 13.85618498 -1.13671875 11.703125 C-1.13605796 10.34374954 -1.13477679 8.9843742 -1.1328125 7.625 C-1.13168457 6.37976563 -1.13055664 5.13453125 -1.12939453 3.8515625 C-1 1 -1 1 0 0 Z " fill="#3F3F3F" transform="translate(243,8)"/>
<path d="M0 0 C1.81242052 -0.02687279 3.62495233 -0.04633715 5.4375 -0.0625 C6.44683594 -0.07410156 7.45617187 -0.08570312 8.49609375 -0.09765625 C11 0 11 0 12 1 C12.07313567 3.53049402 12.09247527 6.03304837 12.0625 8.5625 C12.05798828 9.27341797 12.05347656 9.98433594 12.04882812 10.71679688 C12.03700864 12.47790013 12.01907263 14.23896036 12 16 C8.93753253 17.78409802 6.77920727 18.22880021 3.25 18.125 C2.45078125 18.10695313 1.6515625 18.08890625 0.828125 18.0703125 C0.22484375 18.04710938 -0.3784375 18.02390625 -1 18 C-0.01 17.01 0.98 16.02 2 15 C-2.455 14.01 -2.455 14.01 -7 13 C-7.33 11.35 -7.66 9.7 -8 8 C-7.59910156 8.48082031 -7.19820312 8.96164063 -6.78515625 9.45703125 C-4.58882362 11.35539315 -3.30108204 11.47520809 -0.4375 11.6875 C0.74005859 11.78611328 0.74005859 11.78611328 1.94140625 11.88671875 C3.29275322 11.9610813 4.64660855 12 6 12 C6 9.69 6 7.38 6 5 C3.69 5 1.38 5 -1 5 C-0.67 3.35 -0.34 1.7 0 0 Z " fill="#434343" transform="translate(192,22)"/>
<path d="M0 0 C0.78552246 0.01047363 1.57104492 0.02094727 2.38037109 0.03173828 C3.23115234 0.03818359 4.08193359 0.04462891 4.95849609 0.05126953 C6.29267578 0.07640625 6.29267578 0.07640625 7.65380859 0.10205078 C8.99958984 0.11558594 8.99958984 0.11558594 10.37255859 0.12939453 C12.59157445 0.15300108 14.81005937 0.18592768 17.02880859 0.22705078 C17.35880859 1.87705078 17.68880859 3.52705078 18.02880859 5.22705078 C15.02567112 6.72861952 12.23813337 6.31986282 8.90380859 6.28955078 C7.62248047 6.28052734 6.34115234 6.27150391 5.02099609 6.26220703 C4.03357422 6.25060547 3.04615234 6.23900391 2.02880859 6.22705078 C2.35880859 5.23705078 2.68880859 4.24705078 3.02880859 3.22705078 C1.70880859 3.22705078 0.38880859 3.22705078 -0.97119141 3.22705078 C-1.30119141 12.46705078 -1.63119141 21.70705078 -1.97119141 31.22705078 C-2.63119141 30.89705078 -3.29119141 30.56705078 -3.97119141 30.22705078 C-4.02058803 26.276081 -4.05690896 22.32523049 -4.08105469 18.37402344 C-4.09607248 16.36793718 -4.12148121 14.36193754 -4.14697266 12.35595703 C-4.15664063 10.47070312 -4.15664063 10.47070312 -4.16650391 8.54736328 C-4.17697754 7.38479004 -4.18745117 6.2222168 -4.19824219 5.02441406 C-3.93386756 1.76720495 -3.41194649 0.3930035 0 0 Z " fill="#4D4D4D" transform="translate(281.97119140625,7.77294921875)"/>
<path d="M0 0 C0.474375 0.45375 0.94875 0.9075 1.4375 1.375 C1.1075 2.695 0.7775 4.015 0.4375 5.375 C-0.2225 5.230625 -0.8825 5.08625 -1.5625 4.9375 C-8.28207854 3.40114952 -8.28207854 3.40114952 -14.9375 4.1875 C-16.70591413 5.41594279 -16.70591413 5.41594279 -18.5625 7.375 C-18.8925 6.385 -19.2225 5.395 -19.5625 4.375 C-18.125 2.1875 -18.125 2.1875 -16.5625 0.375 C-17.5525 0.045 -18.5425 -0.285 -19.5625 -0.625 C-13.27495148 -4.81669901 -6.29614289 -3.99267598 0 0 Z " fill="#404040" transform="translate(202.5625,10.625)"/>
<path d="M0 0 C3 0.25 3 0.25 5 2.25 C5.3125 5.25 5.3125 5.25 5 8.25 C2 10.25 2 10.25 -0.5625 10 C-3 9.25 -3 9.25 -5 7.25 C-5.25 4.75 -5.25 4.75 -5 2.25 C-3 0.25 -3 0.25 0 0 Z " fill="#19BDF0" transform="translate(43,-0.25)"/>
<path d="M0 0 C0.33 0 0.66 0 1 0 C1 1.65 1 3.3 1 5 C2.37285156 4.98259766 2.37285156 4.98259766 3.7734375 4.96484375 C5.55621094 4.95130859 5.55621094 4.95130859 7.375 4.9375 C8.55835938 4.92589844 9.74171875 4.91429687 10.9609375 4.90234375 C14 5 14 5 16 6 C15.67 7.65 15.34 9.3 15 11 C8.73 11 2.46 11 -4 11 C-4 10.67 -4 10.34 -4 10 C-2.02 9.67 -0.04 9.34 2 9 C1.34 8.34 0.68 7.68 0 7 C-0.125 3.375 -0.125 3.375 0 0 Z " fill="#545454" transform="translate(284,29)"/>
<path d="M0 0 C0.31263383 6.87794433 0.31263383 6.87794433 -2 10 C-4 10.875 -4 10.875 -6 11 C-6.66 10.34 -7.32 9.68 -8 9 C-8 7.68 -8 6.36 -8 5 C-7.34 5 -6.68 5 -6 5 C-6 4.34 -6 3.68 -6 3 C-1.5 0 -1.5 0 0 0 Z " fill="#3F3F3F" transform="translate(262,25)"/>
<path d="M0 0 C-1.485 1.485 -1.485 1.485 -3 3 C-1.02 3.66 0.96 4.32 3 5 C1 6 1 6 -2.9375 6.375 C-5.71112436 6.68206186 -6.75561121 6.80907126 -9 8.5625 C-9.33 9.036875 -9.66 9.51125 -10 10 C-10.33 9.01 -10.66 8.02 -11 7 C-9.5625 4.8125 -9.5625 4.8125 -8 3 C-8.99 2.67 -9.98 2.34 -11 2 C-7.06425135 -0.62383243 -4.54354105 -1.51451368 0 0 Z " fill="#4D4D4D" transform="translate(194,8)"/>
<path d="M0 0 C0.4021875 0.48082031 0.804375 0.96164063 1.21875 1.45703125 C3.39952303 3.34607806 4.65436537 3.4740774 7.5 3.6875 C8.2734375 3.75324219 9.046875 3.81898437 9.84375 3.88671875 C11.56054715 3.9769128 13.28083526 4 15 4 C14.34 5.32 13.68 6.64 13 8 C13.99 8.66 14.98 9.32 16 10 C13.03 10 10.06 10 7 10 C7.99 9.01 8.98 8.02 10 7 C5.545 6.01 5.545 6.01 1 5 C0.67 3.35 0.34 1.7 0 0 Z " fill="#525252" transform="translate(184,30)"/>
<path d="M0 0 C1.32 0 2.64 0 4 0 C4 2.31 4 4.62 4 7 C2.35 7.33 0.7 7.66 -1 8 C-1.125 2.25 -1.125 2.25 0 0 Z " fill="#3B3B3B" transform="translate(217,14)"/>
<path d="M0 0 C1.32 0.33 2.64 0.66 4 1 C3.67 2.65 3.34 4.3 3 6 C0.69 5.67 -1.62 5.34 -4 5 C-3.67 4.01 -3.34 3.02 -3 2 C-2.01 2 -1.02 2 0 2 C0 1.34 0 0.68 0 0 Z " fill="#383838" transform="translate(94,34)"/>
<path d="M0 0 C3.3 0 6.6 0 10 0 C10 0.99 10 1.98 10 3 C9.34 2.67 8.68 2.34 8 2 C8 2.66 8 3.32 8 4 C7.34 4 6.68 4 6 4 C6 3.34 6 2.68 6 2 C3.69 2.33 1.38 2.66 -1 3 C-0.67 2.01 -0.34 1.02 0 0 Z " fill="#2D2D2D" transform="translate(89,9)"/>
<path d="M0 0 C0.73969906 2.40402194 0.99386007 4.27629688 0.9375 6.8125 C1.00927688 10.47312084 1.98957095 13.49717929 3 17 C2.67 17.66 2.34 18.32 2 19 C-0.79102638 13.53424001 -1.61767656 9.12925207 -1 3 C-0.67 2.01 -0.34 1.02 0 0 Z " fill="#6A6A6A" transform="translate(111,16)"/>
<path d="M0 0 C1.45792884 -0.05399736 2.91642712 -0.09279177 4.375 -0.125 C5.18710938 -0.14820313 5.99921875 -0.17140625 6.8359375 -0.1953125 C9 0 9 0 11 2 C10 3 10 3 7.93359375 3.09765625 C7.10988281 3.08605469 6.28617187 3.07445312 5.4375 3.0625 C4.61121094 3.05347656 3.78492187 3.04445313 2.93359375 3.03515625 C2.29550781 3.02355469 1.65742187 3.01195312 1 3 C0.67 2.01 0.34 1.02 0 0 Z " fill="#2A2A2A" transform="translate(121,9)"/>
<path d="M0 0 C0.99 0.33 1.98 0.66 3 1 C2.00233891 3.49415272 1.31383315 4.78740335 -0.9375 6.3125 C-3 7 -3 7 -6 6 C-4.68 5.67 -3.36 5.34 -2 5 C-1.855625 4.360625 -1.71125 3.72125 -1.5625 3.0625 C-1 1 -1 1 0 0 Z " fill="#515151" transform="translate(134,33)"/>
<path d="M0 0 C0.33 0.66 0.66 1.32 1 2 C-3.625 4.125 -3.625 4.125 -7 3 C-6.67 2.01 -6.34 1.02 -6 0 C-3 -1 -3 -1 0 0 Z " fill="#2C2C2C" transform="translate(131,36)"/>
<path d="M0 0 C1.0625 1.875 1.0625 1.875 2 4 C1.67 4.66 1.34 5.32 1 6 C0.34 6 -0.32 6 -1 6 C-1.33 6.66 -1.66 7.32 -2 8 C-2.66 6.02 -3.32 4.04 -4 2 C-3.01 2 -2.02 2 -1 2 C-0.67 1.34 -0.34 0.68 0 0 Z " fill="#515151" transform="translate(255,24)"/>
<path d="M0 0 C0.66 0.99 1.32 1.98 2 3 C2.99 3 3.98 3 5 3 C4.67 4.65 4.34 6.3 4 8 C3.67 7.01 3.34 6.02 3 5 C1.35 5.66 -0.3 6.32 -2 7 C-1.34 4.69 -0.68 2.38 0 0 Z " fill="#565656" transform="translate(215,18)"/>
<path d="M0 0 C2.31 0 4.62 0 7 0 C7 0.99 7 1.98 7 3 C2.25 4.125 2.25 4.125 0 3 C0 2.01 0 1.02 0 0 Z " fill="#2A2A2A" transform="translate(188,36)"/>
<path d="M0 0 C0.99 1.32 1.98 2.64 3 4 C2.67 4.66 2.34 5.32 2 6 C1.01 5.67 0.02 5.34 -1 5 C-1.66 5.66 -2.32 6.32 -3 7 C-3.33 5.35 -3.66 3.7 -4 2 C-3.01 2 -2.02 2 -1 2 C-0.67 1.34 -0.34 0.68 0 0 Z " fill="#4F4F4F" transform="translate(228,15)"/>
<path d="M0 0 C-0.33 1.32 -0.66 2.64 -1 4 C-2.65 3.67 -4.3 3.34 -6 3 C-6 2.34 -6 1.68 -6 1 C-4 0 -4 0 0 0 Z " fill="#4E4E4E" transform="translate(204,12)"/>
<path d="M0 0 C0 0.99 0 1.98 0 3 C-2.31 3 -4.62 3 -7 3 C-7.33 2.01 -7.66 1.02 -8 0 C-2.25 -1.125 -2.25 -1.125 0 0 Z " fill="#2B2B2B" transform="translate(196,9)"/>
</svg>
